<svg width="82" height="26" viewBox="0 0 82 26" fill="none" xmlns="http://www.w3.org/2000/svg">
<path d="M12.3115 3.07655H18.6704C20.9554 3.07655 22.8071 4.93661 22.8071 7.23193V8.47445C22.8071 8.65116 22.9496 8.7944 23.1256 8.7944H25.5495C25.7253 8.7944 25.8679 8.65116 25.8679 8.47445V5.84617C25.8679 5.31605 25.6587 4.81013 25.2865 4.43625L21.4517 0.584064C21.0776 0.20647 20.5796 0 20.0499 0H12.3115V3.07655Z" fill="url(#paint0_linear_211_2943)"/>
<path d="M12.3114 22.924H18.6705C20.9555 22.924 22.8072 21.064 22.8072 18.7686V14.1051C22.8072 13.9284 22.9497 13.7852 23.1257 13.7852H25.5495C25.7254 13.7852 25.868 13.9284 25.868 14.1051V20.1545C25.868 20.6845 25.6588 21.1905 25.2866 21.5643L21.4518 25.4165C21.0777 25.7941 20.5796 26.0006 20.05 26.0006H12.3114V22.924Z" fill="url(#paint1_linear_211_2943)"/>
<path d="M12.934 0H5.81806C5.29589 0 4.78483 0.21391 4.41635 0.584064L0.581527 4.43625C0.209341 4.81013 0.00012207 5.31605 0.00012207 5.84431V13H3.06277V7.23193C3.06277 4.93661 4.91446 3.07655 7.19943 3.07655H12.934V0Z" fill="url(#paint2_linear_211_2943)"/>
<path d="M12.934 25.9995H5.81806C5.29589 25.9995 4.78483 25.7856 4.41635 25.4155L0.581527 21.5632C0.209341 21.1894 0.00012207 20.6835 0.00012207 20.1552V12.6172H3.06277V18.7675C3.06277 21.063 4.91446 22.923 7.19943 22.923H12.934V25.9995Z" fill="url(#paint3_linear_211_2943)"/>
<path d="M9.3602 15.0519C10.2688 15.0519 11.0053 14.2861 11.0053 13.3414C11.0053 12.3967 10.2688 11.6309 9.3602 11.6309C8.45164 11.6309 7.71509 12.3967 7.71509 13.3414C7.71509 14.2861 8.45164 15.0519 9.3602 15.0519Z" fill="#EFEFE5"/>
<path d="M16.7348 15.0519C17.6433 15.0519 18.3799 14.2861 18.3799 13.3414C18.3799 12.3967 17.6433 11.6309 16.7348 11.6309C15.8262 11.6309 15.0897 12.3967 15.0897 13.3414C15.0897 14.2861 15.8262 15.0519 16.7348 15.0519Z" fill="#EFEFE5"/>
<path d="M42.7762 5.1642H44.5675V19.8506H42.7762V18.1109C42.1592 19.3044 40.7858 20.1743 39.5319 20.1743C37.2231 20.1743 35.3323 18.7784 35.3323 15.7643V14.2269C35.3323 11.2127 37.2231 9.81691 39.5319 9.81691C40.7858 9.81691 42.1592 10.6868 42.7762 11.8803V5.1642ZM39.9101 18.4345C41.1043 18.4345 42.7762 17.7063 42.7762 15.2181V14.7731C42.7762 12.2849 41.1043 11.5566 39.9101 11.5566C37.9794 11.5566 37.1236 12.7299 37.1236 14.5505V15.4406C37.1236 17.2613 37.9794 18.4345 39.9101 18.4345Z" fill="#EFEFE5"/>
<path d="M57.5642 19.8506L55.9918 15.3193H49.7222L48.1498 19.8506H46.259L51.215 5.48787H54.499L59.455 19.8506H57.5642ZM50.3193 13.5795H55.3947L53.2053 7.22758H52.5087L50.3193 13.5795Z" fill="#EFEFE5"/>
<path d="M66.1771 9.81691C68.4859 9.81691 70.3768 11.2127 70.3768 14.2269V15.7643C70.3768 18.7784 68.4859 20.1743 66.1771 20.1743C64.9232 20.1743 63.5499 19.3044 62.9328 18.1109V23.6941H61.1415V10.1406H62.9328V11.8803C63.5499 10.6868 64.9232 9.81691 66.1771 9.81691ZM68.5854 15.4406V14.5505C68.5854 12.7299 67.7296 11.5566 65.7989 11.5566C64.6047 11.5566 62.9328 12.2849 62.9328 14.7731V15.2181C62.9328 17.7063 64.6047 18.4345 65.7989 18.4345C67.7296 18.4345 68.5854 17.2613 68.5854 15.4406Z" fill="#EFEFE5"/>
<path d="M77.8005 9.81691C80.1093 9.81691 82.0001 11.2127 82.0001 14.2269V15.7643C82.0001 18.7784 80.1093 20.1743 77.8005 20.1743C76.5465 20.1743 75.1732 19.3044 74.5562 18.1109V23.6941H72.7649V10.1406H74.5562V11.8803C75.1732 10.6868 76.5465 9.81691 77.8005 9.81691ZM80.2088 15.4406V14.5505C80.2088 12.7299 79.3529 11.5566 77.4223 11.5566C76.2281 11.5566 74.5562 12.2849 74.5562 14.7731V15.2181C74.5562 17.7063 76.2281 18.4345 77.4223 18.4345C79.3529 18.4345 80.2088 17.2613 80.2088 15.4406Z" fill="#EFEFE5"/>
<defs>
<linearGradient id="paint0_linear_211_2943" x1="25.1305" y1="8.7807" x2="13.0783" y2="2.55899" gradientUnits="userSpaceOnUse">
<stop stop-color="#6C5AE6"/>
<stop offset="1" stop-color="#509ADD"/>
</linearGradient>
<linearGradient id="paint1_linear_211_2943" x1="25.1304" y1="17.2199" x2="13.0782" y2="23.4416" gradientUnits="userSpaceOnUse">
<stop stop-color="#FC6756"/>
<stop offset="1" stop-color="#F8CF3E"/>
</linearGradient>
<linearGradient id="paint2_linear_211_2943" x1="12.4235" y1="2.90789" x2="3.29037" y2="14.3231" gradientUnits="userSpaceOnUse">
<stop stop-color="#509ADD"/>
<stop offset="1" stop-color="#26F4D0"/>
</linearGradient>
<linearGradient id="paint3_linear_211_2943" x1="10.1544" y1="23.0346" x2="2.90014" y2="12.578" gradientUnits="userSpaceOnUse">
<stop stop-color="#F8CF3E"/>
<stop offset="0.288195" stop-color="#F8CF3E"/>
<stop offset="1" stop-color="#27F3D1"/>
</linearGradient>
</defs>
</svg>
